<?xml version="1.0" encoding="UTF-8" standalone="no"?><svg xmlns="http://www.w3.org/2000/svg" xmlns:xlink="http://www.w3.org/1999/xlink" contentStyleType="text/css" height="619.7917px" preserveAspectRatio="none" style="width:1035px;height:619px;" version="1.1" viewBox="0 0 1035 619" width="1035.4167px" zoomAndPan="magnify"><defs><linearGradient id="g1m9evl3d4qed60" x1="50%" x2="50%" y1="0%" y2="100%"><stop offset="0%" stop-color="#3A3A3A"/><stop offset="100%" stop-color="#262626"/></linearGradient></defs><g><!--cluster Project--><g id="cluster_Project"><path d="M355.2083,16.6667 L418.75,16.6667 A6.25,6.25 0 0 1 422.9167,20.8333 L430.2083,47.8841 L578.125,47.8841 A4.1667,4.1667 0 0 1 582.2917,52.0508 L582.2917,355.2083 A4.1667,4.1667 0 0 1 578.125,359.375 L355.2083,359.375 A4.1667,4.1667 0 0 1 351.0417,355.2083 L351.0417,20.8333 A4.1667,4.1667 0 0 1 355.2083,16.6667 " fill="none" style="stroke:#262626;stroke-width:2.0833333333333335;"/><line style="stroke:#262626;stroke-width:2.0833333333333335;" x1="351.0417" x2="430.2083" y1="47.8841" y2="47.8841"/><text fill="#FFF200" font-family="Verdana" font-size="12.5" font-weight="bold" lengthAdjust="spacing" textLength="55.2083" x="360.4167" y="35.5611">Project</text></g><!--cluster Task--><g id="cluster_Task"><path d="M798.9583,346.875 L843.75,346.875 A6.25,6.25 0 0 1 847.9167,351.0417 L855.2083,378.0924 L1018.75,378.0924 A4.1667,4.1667 0 0 1 1022.9167,382.2591 L1022.9167,603.125 A4.1667,4.1667 0 0 1 1018.75,607.2917 L798.9583,607.2917 A4.1667,4.1667 0 0 1 794.7917,603.125 L794.7917,351.0417 A4.1667,4.1667 0 0 1 798.9583,346.875 " fill="none" style="stroke:#262626;stroke-width:2.0833333333333335;"/><line style="stroke:#262626;stroke-width:2.0833333333333335;" x1="794.7917" x2="855.2083" y1="378.0924" y2="378.0924"/><text fill="#FFF200" font-family="Verdana" font-size="12.5" font-weight="bold" lengthAdjust="spacing" textLength="36.4583" x="804.1667" y="365.7694">Task</text></g><!--cluster UI--><g id="cluster_UI"><path d="M20.8333,43.75 L42.7083,43.75 A6.25,6.25 0 0 1 46.875,47.9167 L54.1667,74.9674 L312.5,74.9674 A4.1667,4.1667 0 0 1 316.6667,79.1341 L316.6667,246.875 A4.1667,4.1667 0 0 1 312.5,251.0417 L20.8333,251.0417 A4.1667,4.1667 0 0 1 16.6667,246.875 L16.6667,47.9167 A4.1667,4.1667 0 0 1 20.8333,43.75 " fill="none" style="stroke:#262626;stroke-width:2.0833333333333335;"/><line style="stroke:#262626;stroke-width:2.0833333333333335;" x1="16.6667" x2="54.1667" y1="74.9674" y2="74.9674"/><text fill="#FFF200" font-family="Verdana" font-size="12.5" font-weight="bold" lengthAdjust="spacing" textLength="13.5417" x="26.0417" y="62.6444">UI</text></g><g id="elem_UC1.1"><ellipse cx="466.7814" cy="239.5297" fill="url(#g1m9evl3d4qed60)" rx="87.0939" ry="20.7797" style="stroke:#262626;stroke-width:2.0833333333333335;"/><text fill="#FFF200" font-family="Verdana" font-size="12.5" lengthAdjust="spacing" textLength="95.8333" x="418.8648" y="241.7737">Créer un projet</text></g><g id="elem_UC1.2"><ellipse cx="466.8069" cy="160.5489" fill="url(#g1m9evl3d4qed60)" rx="97.536" ry="22.0072" style="stroke:#262626;stroke-width:2.0833333333333335;"/><text fill="#FFF200" font-family="Verdana" font-size="12.5" lengthAdjust="spacing" textLength="118.75" x="407.4319" y="162.7929">Ajouter des taches</text></g><g id="elem_UC1.3"><ellipse cx="466.9003" cy="81.5051" fill="url(#g1m9evl3d4qed60)" rx="92.942" ry="21.0884" style="stroke:#262626;stroke-width:2.0833333333333335;"/><text fill="#FFF200" font-family="Verdana" font-size="12.5" lengthAdjust="spacing" textLength="106.25" x="413.7753" y="83.7491">Calculer la durée</text></g><g id="elem_UC1.4"><ellipse cx="466.8173" cy="319.7176" fill="url(#g1m9evl3d4qed60)" rx="99.109" ry="22.3218" style="stroke:#262626;stroke-width:2.0833333333333335;"/><text fill="#FFF200" font-family="Verdana" font-size="12.5" lengthAdjust="spacing" textLength="122.9167" x="405.359" y="321.9617">Supprimer le projet</text></g><g id="elem_UC2.1"><ellipse cx="909.0059" cy="411.4047" fill="url(#g1m9evl3d4qed60)" rx="90.7768" ry="20.7797" style="stroke:#262626;stroke-width:2.0833333333333335;"/><text fill="#FFF200" font-family="Verdana" font-size="12.5" lengthAdjust="spacing" textLength="101.0417" x="858.4851" y="413.6487">Créer une tache</text></g><g id="elem_UC2.2"><ellipse cx="908.7162" cy="569.738" fill="url(#g1m9evl3d4qed60)" rx="82.6745" ry="20.7797" style="stroke:#262626;stroke-width:2.0833333333333335;"/><text fill="#FFF200" font-family="Verdana" font-size="12.5" lengthAdjust="spacing" textLength="89.5833" x="863.9245" y="571.982">Editer la tache</text></g><g id="elem_UC2.3"><ellipse cx="908.9944" cy="490.7572" fill="url(#g1m9evl3d4qed60)" rx="97.536" ry="22.0072" style="stroke:#262626;stroke-width:2.0833333333333335;"/><text fill="#FFF200" font-family="Verdana" font-size="12.5" lengthAdjust="spacing" textLength="118.75" x="849.6194" y="493.0013">Supprimer la tache</text></g><g id="elem_UC3.1"><ellipse cx="166.8051" cy="113.6735" fill="url(#g1m9evl3d4qed60)" rx="118.3676" ry="26.1735" style="stroke:#262626;stroke-width:2.0833333333333335;"/><text fill="#FFF200" font-family="Verdana" font-size="12.5" lengthAdjust="spacing" textLength="170.8333" x="81.3884" y="115.9176">Afficher le diagramme PERT</text></g><g id="elem_UC3.2"><ellipse cx="166.4827" cy="205.1715" fill="url(#g1m9evl3d4qed60)" rx="133.1494" ry="29.1299" style="stroke:#262626;stroke-width:2.0833333333333335;"/><text fill="#FFF200" font-family="Verdana" font-size="12.5" lengthAdjust="spacing" textLength="205.2083" x="63.8785" y="207.4156">Afficher le tableau d'avancement</text></g><!--entity u--><g id="elem_u"><ellipse cx="166.6667" cy="343.75" fill="url(#g1m9evl3d4qed60)" rx="16.6667" ry="16.6667" style="stroke:#262626;stroke-width:1.5625;"/><path d="M166.6667,364.5833 C170.8333,364.5833 173.9583,364.5833 178.125,360.4167 C186.4583,360.4167 194.7917,368.75 194.7917,377.0833 L194.7917,381.25 C194.7917,385.4167 190.625,389.5833 186.4583,389.5833 L146.875,389.5833 C142.7083,389.5833 138.5417,385.4167 138.5417,381.25 L138.5417,377.0833 C138.5417,368.75 146.875,360.4167 155.2083,360.4167 C159.375,364.5833 162.5,364.5833 166.6667,364.5833 " fill="url(#g1m9evl3d4qed60)" style="stroke:#262626;stroke-width:1.5625;"/><text fill="#FFF200" font-family="Verdana" font-size="12.5" lengthAdjust="spacing" textLength="30.2083" x="151.5625" y="407.9569">User</text></g><!--link u to UC1.1--><g id="link_u_UC1.1"><path d="M196.3865,353.8594 C230.4604,334.1563 289.4125,301.5135 342.7083,279.1667 C362.4354,270.8948 384.5323,263.2906 404.4917,257.0052 " fill="none" id="u-to-UC1.1" style="stroke:#303030;stroke-width:3.125;"/><polygon fill="#303030" points="409.5177,255.4365,399.327,254.2528,404.546,256.9885,401.8103,262.2076,409.5177,255.4365" style="stroke:#303030;stroke-width:3.125;"/></g><!--link u to UC1.2--><g id="link_u_UC1.2"><path d="M196.5188,355.8771 C231.6094,336.275 290.4646,298.7146 325,251.0417 C339.0865,231.5958 325.5406,216.7875 342.7083,200 C353.9417,189.0156 368.2354,181.0792 383.0719,175.3448 " fill="none" id="u-to-UC1.2" style="stroke:#303030;stroke-width:3.125;"/><polygon fill="#303030" points="388.1208,173.4833,377.8834,172.8148,383.2337,175.284,380.7645,180.6343,388.1208,173.4833" style="stroke:#303030;stroke-width:3.125;"/></g><!--link UC1.2 to UC1.3--><g id="link_UC1.2_UC1.3"><path d="M466.6667,138.4604 C466.6667,128.1833 466.6667,117.9073 466.6667,107.6313 " fill="none" id="UC1.2-to-UC1.3" style="stroke:#303030;stroke-width:3.125;"/><polygon fill="#303030" points="466.6667,102.2573,462.5,111.6323,466.6667,107.4656,470.8333,111.6323,466.6667,102.2573" style="stroke:#303030;stroke-width:3.125;"/></g><!--link u to UC1.4--><g id="link_u_UC1.4"><path d="M196.5448,365.8927 C239.0125,358.6167 320.0521,344.7323 382.1427,334.0948 " fill="none" id="u-to-UC1.4" style="stroke:#303030;stroke-width:3.125;"/><polygon fill="#303030" points="387.3333,333.2052,377.3893,330.6818,382.1998,334.0849,378.7967,338.8954,387.3333,333.2052" style="stroke:#303030;stroke-width:3.125;"/></g><!--link u to UC2.1--><g id="link_u_UC2.1"><path d="M196.7208,372.426 C299.1698,378.049 646.8208,397.1323 815.076,406.3677 " fill="none" id="u-to-UC2.1" style="stroke:#303030;stroke-width:3.125;"/><polygon fill="#303030" points="820.4927,406.6656,811.3604,401.991,815.2922,406.3799,810.9033,410.3118,820.4927,406.6656" style="stroke:#303030;stroke-width:3.125;"/></g><!--link u to UC2.2--><g id="link_u_UC2.2"><path d="M196.5771,389.1083 C230.351,409.6865 288.5594,442.6917 342.7083,461.4583 C509.2531,519.1781 714.6802,548.797 826.2688,561.631 " fill="none" id="u-to-UC2.2" style="stroke:#303030;stroke-width:3.125;"/><polygon fill="#303030" points="831.5104,562.2295,822.6685,557.0263,826.3357,561.6387,821.7233,565.3059,831.5104,562.2295" style="stroke:#303030;stroke-width:3.125;"/></g><!--link u to UC2.3--><g id="link_u_UC2.3"><path d="M196.85,377.3635 C266.2073,392.7219 446.6708,431.6167 598.9583,455.2083 C670.5344,466.2969 751.9427,475.4917 813.2042,481.7323 " fill="none" id="u-to-UC2.3" style="stroke:#303030;stroke-width:3.125;"/><polygon fill="#303030" points="818.6948,482.2896,809.7879,477.1986,813.513,481.7643,808.9473,485.4894,818.6948,482.2896" style="stroke:#303030;stroke-width:3.125;"/></g><!--link UC1.4 to UC2.3--><g id="link_UC1.4_UC2.3"><path d="M512.9427,339.6802 C574.349,366.3875 687.7625,414.6844 786.4583,451.0417 C805.4656,458.0438 826.3719,465.0917 845.3958,471.2604 " fill="none" id="UC1.4-to-UC2.3" style="stroke:#303030;stroke-width:3.125;"/><polygon fill="#303030" points="850.7094,472.976,843.0672,466.1314,845.7528,471.3764,840.5078,474.062,850.7094,472.976" style="stroke:#303030;stroke-width:3.125;"/><text fill="#FFFFFF" font-family="Verdana" font-size="12.5" lengthAdjust="spacing" textLength="166.6667" x="605.2083" y="369.9361">supprimer les taches filles</text></g><!--SRC=[RPBFRi8m3CRlVWgFoqvCekMqmoI4EEo61dq0axeGclvHucoQ9Xvepx4NMrgW3OXBP2i_Ez_d-4aEN37k3AboMjPwVn00L-gw9KiLafB6RkJRCD8NkwPYC5m8IeEsOp7NbfNefWReMSmSMoI77g0DFMdFkBRDCK3u0zwn8iSuMTg_ty3v6jlkKYPTIRQSlSn6Pd5il0GePuT2wi1ke9Ae4ndbJS0COUwxjWELZjJ6jwtLLOVn_PDpE05ud4xVhWg6E87-n4kQHbVpqT-MNFdG79zrNrvAOdEhNCjPz2sIFDHyJwMnv2IIt3SOuhINFnzpV4KNJU8wLooq2TdeA7kF_IoAGWUidrskQHyM8wpCUlMnlGXARxujeeLsXibZ_aoVLAkmQRKCDGcS_W40]--></g></svg>