<?xml version="1.0" encoding="UTF-8" standalone="no"?><svg xmlns="http://www.w3.org/2000/svg" xmlns:xlink="http://www.w3.org/1999/xlink" contentStyleType="text/css" height="585.4167px" preserveAspectRatio="none" style="width:738px;height:585px;" version="1.1" viewBox="0 0 738 585" width="738.5417px" zoomAndPan="magnify"><defs><linearGradient id="g8w8fn7kisxkp0" x1="50%" x2="50%" y1="0%" y2="100%"><stop offset="0%" stop-color="#3A3A3A"/><stop offset="100%" stop-color="#262626"/></linearGradient><linearGradient id="g8w8fn7kisxkp1" x1="50%" x2="50%" y1="0%" y2="100%"><stop offset="0%" stop-color="#3A3A3A"/><stop offset="100%" stop-color="#484848"/></linearGradient></defs><g><!--class Project--><g id="elem_Project"><rect codeLine="4" fill="url(#g8w8fn7kisxkp0)" height="359.6517" id="Project" rx="4.1667" ry="4.1667" style="stroke:#262626;stroke-width:1.0416666666666667;" width="207.2917" x="97.9167" y="115.625"/><rect fill="url(#g8w8fn7kisxkp1)" height="34.1715" rx="4.1667" ry="4.1667" style="stroke:url(#g8w8fn7kisxkp1);stroke-width:1.0416666666666667;" width="207.2917" x="97.9167" y="115.625"/><rect fill="url(#g8w8fn7kisxkp1)" height="4.1667" style="stroke:url(#g8w8fn7kisxkp1);stroke-width:1.0416666666666667;" width="207.2917" x="97.9167" y="145.6299"/><rect codeLine="4" fill="none" height="359.6517" id="Project" rx="4.1667" ry="4.1667" style="stroke:#262626;stroke-width:1.0416666666666667;" width="207.2917" x="97.9167" y="115.625"/><ellipse cx="172.3958" cy="132.7108" fill="none" rx="10.4167" ry="10.4167" style="stroke:#262626;stroke-width:1.0416666666666667;"/><path d="M174.3327,129.3254 C173.6491,128.9998 173.2096,128.9022 172.5586,128.9022 C170.638,128.9022 169.1569,130.4159 169.1569,132.4178 L169.1569,133.2479 C169.1569,135.1522 170.7194,136.5356 172.8353,136.5356 C173.7305,136.5356 174.5931,136.3078 175.1302,135.9009 C175.5697,135.6079 175.7975,135.2824 175.7975,134.9894 C175.7975,134.6639 175.5046,134.3709 175.179,134.3709 C175.0163,134.3709 174.8698,134.436 174.7233,134.5662 C174.3815,134.9243 174.3815,134.9243 174.2513,134.9894 C173.9421,135.1847 173.4375,135.2824 172.8678,135.2824 C171.3704,135.2824 170.4102,134.4686 170.4102,133.2153 L170.4102,132.4178 C170.4102,131.0994 171.3379,130.1392 172.6074,130.1392 C173.0306,130.1392 173.4863,130.2531 173.8281,130.4484 C174.1862,130.6437 174.3164,130.8065 174.3815,131.0994 C174.4303,131.4087 174.4466,131.4901 174.5443,131.5877 C174.6419,131.7017 174.821,131.7668 174.9837,131.7668 C175.1953,131.7668 175.3743,131.6691 175.5046,131.5063 C175.5859,131.3924 175.6185,131.2622 175.6185,130.9367 L175.6185,129.895 C175.6185,129.5858 175.6022,129.4881 175.5208,129.3742 C175.4069,129.1789 175.2116,129.0649 174.9837,129.0649 C174.7721,129.0649 174.6257,129.1463 174.4629,129.3742 L174.3327,129.3254 Z " fill="#FFF200"/><text fill="#FFF200" font-family="Verdana" font-size="11.4583" lengthAdjust="spacing" textLength="39.5833" x="197.3958" y="136.6776">Project</text><line style="stroke:#262626;stroke-width:1.0416666666666667;" x1="98.9583" x2="304.1667" y1="149.7965" y2="149.7965"/><text fill="#FFF200" font-family="Verdana" font-size="11.4583" lengthAdjust="spacing" textLength="123.9583" x="109.375" y="169.8074">+String projectName</text><text fill="#FFF200" font-family="Verdana" font-size="11.4583" lengthAdjust="spacing" textLength="118.75" x="109.375" y="193.5623">+String projectDesc</text><text fill="#FFF200" font-family="Verdana" font-size="11.4583" lengthAdjust="spacing" textLength="153.125" x="109.375" y="217.3172">+BindingList&lt;Task&gt; tasks</text><text fill="#FFF200" font-family="Verdana" font-size="11.4583" lengthAdjust="spacing" textLength="145.8333" x="109.375" y="241.0721">+unsigned float duration</text><text fill="#FFF200" font-family="Verdana" font-size="11.4583" lengthAdjust="spacing" textLength="97.9167" x="109.375" y="264.827">+String timeUnit</text><text fill="#FFF200" font-family="Verdana" font-size="11.4583" lengthAdjust="spacing" textLength="129.1667" x="109.375" y="288.5818">+String timeUnitShort</text><text fill="#FFF200" font-family="Verdana" font-size="11.4583" lengthAdjust="spacing" textLength="90.625" x="109.375" y="312.3367">+Task endTask</text><line style="stroke:#262626;stroke-width:1.0416666666666667;" x1="98.9583" x2="304.1667" y1="324.4141" y2="324.4141"/><text fill="#FFF200" font-family="Verdana" font-size="11.4583" lengthAdjust="spacing" textLength="57.2917" x="109.375" y="344.4249">+Project()</text><text fill="#FFF200" font-family="Verdana" font-size="11.4583" lengthAdjust="spacing" textLength="96.875" x="109.375" y="368.1798">+newTask(Task)</text><text fill="#FFF200" font-family="Verdana" font-size="11.4583" lengthAdjust="spacing" textLength="184.375" x="109.375" y="391.9347">+getTaskByName(String): Task</text><text fill="#FFF200" font-family="Verdana" font-size="11.4583" lengthAdjust="spacing" textLength="164.5833" x="109.375" y="415.6896">+getCriticalPath(): List[Task]</text><text fill="#FFF200" font-family="Verdana" font-size="11.4583" lengthAdjust="spacing" textLength="105.2083" x="109.375" y="439.4445">+toString(): String</text><text fill="#FFF200" font-family="Verdana" font-size="11.4583" lengthAdjust="spacing" textLength="115.625" x="109.375" y="463.1994">-calculateDuration()</text></g><!--class Task--><g id="elem_Task"><rect codeLine="21" fill="url(#g8w8fn7kisxkp0)" height="288.387" id="Task" rx="4.1667" ry="4.1667" style="stroke:#262626;stroke-width:1.0416666666666667;" width="220.8333" x="421.3542" y="151.0417"/><rect fill="url(#g8w8fn7kisxkp1)" height="34.1715" rx="4.1667" ry="4.1667" style="stroke:url(#g8w8fn7kisxkp1);stroke-width:1.0416666666666667;" width="220.8333" x="421.3542" y="151.0417"/><rect fill="url(#g8w8fn7kisxkp1)" height="4.1667" style="stroke:url(#g8w8fn7kisxkp1);stroke-width:1.0416666666666667;" width="220.8333" x="421.3542" y="181.0465"/><rect codeLine="21" fill="none" height="288.387" id="Task" rx="4.1667" ry="4.1667" style="stroke:#262626;stroke-width:1.0416666666666667;" width="220.8333" x="421.3542" y="151.0417"/><ellipse cx="508.8542" cy="168.1274" fill="none" rx="10.4167" ry="10.4167" style="stroke:#262626;stroke-width:1.0416666666666667;"/><path d="M510.791,164.742 C510.1074,164.4165 509.668,164.3188 509.0169,164.3188 C507.0964,164.3188 505.6152,165.8325 505.6152,167.8345 L505.6152,168.6646 C505.6152,170.5688 507.1777,171.9523 509.2936,171.9523 C510.1888,171.9523 511.0514,171.7244 511.5885,171.3175 C512.028,171.0246 512.2559,170.6991 512.2559,170.4061 C512.2559,170.0806 511.9629,169.7876 511.6374,169.7876 C511.4746,169.7876 511.3281,169.8527 511.1816,169.9829 C510.8398,170.341 510.8398,170.341 510.7096,170.4061 C510.4004,170.6014 509.8958,170.6991 509.3262,170.6991 C507.8288,170.6991 506.8685,169.8853 506.8685,168.632 L506.8685,167.8345 C506.8685,166.5161 507.7962,165.5558 509.0658,165.5558 C509.4889,165.5558 509.9447,165.6698 510.2865,165.8651 C510.6445,166.0604 510.7747,166.2231 510.8398,166.5161 C510.8887,166.8254 510.9049,166.9067 511.0026,167.0044 C511.1003,167.1183 511.2793,167.1834 511.4421,167.1834 C511.6536,167.1834 511.8327,167.0858 511.9629,166.923 C512.0443,166.8091 512.0768,166.6789 512.0768,166.3534 L512.0768,165.3117 C512.0768,165.0024 512.0605,164.9048 511.9792,164.7909 C511.8652,164.5955 511.6699,164.4816 511.4421,164.4816 C511.2305,164.4816 511.084,164.563 510.9212,164.7909 L510.791,164.742 Z " fill="#FFF200"/><text fill="#FFF200" font-family="Verdana" font-size="11.4583" lengthAdjust="spacing" textLength="27.0833" x="533.8542" y="172.0942">Task</text><line style="stroke:#262626;stroke-width:1.0416666666666667;" x1="422.3958" x2="641.1458" y1="185.2132" y2="185.2132"/><text fill="#FFF200" font-family="Verdana" font-size="11.4583" lengthAdjust="spacing" textLength="82.2917" x="432.8125" y="205.2241">+String name</text><text fill="#FFF200" font-family="Verdana" font-size="11.4583" lengthAdjust="spacing" textLength="145.8333" x="432.8125" y="228.979">+unsigned float duration</text><text fill="#FFF200" font-family="Verdana" font-size="11.4583" lengthAdjust="spacing" textLength="159.375" x="432.8125" y="252.7339">-List&lt;Task&gt; dependencies</text><line style="stroke:#262626;stroke-width:1.0416666666666667;" x1="422.3958" x2="641.1458" y1="264.8112" y2="264.8112"/><text fill="#FFF200" font-family="Verdana" font-size="11.4583" lengthAdjust="spacing" textLength="133.3333" x="432.8125" y="284.8221">+Task(String Duration)</text><text fill="#FFF200" font-family="Verdana" font-size="11.4583" lengthAdjust="spacing" textLength="142.7083" x="432.8125" y="308.577">+getEarliestStart(): float</text><text fill="#FFF200" font-family="Verdana" font-size="11.4583" lengthAdjust="spacing" textLength="135.4167" x="432.8125" y="332.3318">+getLatestStart(): float</text><text fill="#FFF200" font-family="Verdana" font-size="11.4583" lengthAdjust="spacing" textLength="136.4583" x="432.8125" y="356.0867">+getEarliestEnd(): float</text><text fill="#FFF200" font-family="Verdana" font-size="11.4583" lengthAdjust="spacing" textLength="129.1667" x="432.8125" y="379.8416">+getLatestEnd(): float</text><text fill="#FFF200" font-family="Verdana" font-size="11.4583" lengthAdjust="spacing" textLength="197.9167" x="432.8125" y="403.5965">+getDependencies(): List&lt;Task&gt;</text><text fill="#FFF200" font-family="Verdana" font-size="11.4583" lengthAdjust="spacing" textLength="105.2083" x="432.8125" y="427.3514">+toString(): String</text></g><g id="elem_GMN4"><path d="M16.6667,20.8333 L16.6667,47.8841 A4.1667,4.1667 0 0 0 20.8333,52.0508 L197.3958,52.0508 L201.5625,115.3813 L205.7292,52.0508 L382.2917,52.0508 A4.1667,4.1667 0 0 0 386.4583,47.8841 L386.4583,27.0833 L376.0417,16.6667 L20.8333,16.6667 A4.1667,4.1667 0 0 0 16.6667,20.8333 " fill="#0060A8" style="stroke:#004D86;stroke-width:1.0416666666666667;"/><path d="M376.0417,16.6667 L376.0417,25 A2.0833,2.0833 0 0 0 378.125,27.0833 L386.4583,27.0833 L376.0417,16.6667 " fill="#0060A8" style="stroke:#004D86;stroke-width:1.0416666666666667;"/><text fill="#FFFFFF" font-family="Verdana" font-size="12.5" lengthAdjust="spacing" textLength="337.5" x="28.125" y="38.6861">La durée doit être recalculée à chaque Tache ajoutée</text></g><g id="elem_GMN7"><path d="M336.9792,542.7083 L336.9792,569.7591 A4.1667,4.1667 0 0 0 341.1458,573.9258 L722.3958,573.9258 A4.1667,4.1667 0 0 0 726.5625,569.7591 L726.5625,548.9583 L716.1458,538.5417 L535.9375,538.5417 L531.7708,439.7865 L527.6042,538.5417 L341.1458,538.5417 A4.1667,4.1667 0 0 0 336.9792,542.7083 " fill="#0060A8" style="stroke:#004D86;stroke-width:1.0416666666666667;"/><path d="M716.1458,538.5417 L716.1458,546.875 A2.0833,2.0833 0 0 0 718.2292,548.9583 L726.5625,548.9583 L716.1458,538.5417 " fill="#0060A8" style="stroke:#004D86;stroke-width:1.0416666666666667;"/><text fill="#FFFFFF" font-family="Verdana" font-size="12.5" lengthAdjust="spacing" textLength="357.2917" x="348.4375" y="560.5611">Calcul des durées par récursivité dans les dépendances</text></g><!--reverse link Project to Task--><g id="link_Project_Task"><path codeLine="39" d="M319.1375,295.3125 C352.3417,295.3125 388.349,295.3125 421.1302,295.3125 " fill="none" id="Project-backto-Task" style="stroke:#303030;stroke-width:3.125;"/><polygon fill="#303030" points="305.5896,295.3125,311.8396,299.4792,318.0896,295.3125,311.8396,291.1458,305.5896,295.3125" style="stroke:#303030;stroke-width:3.125;"/><text fill="#FFFFFF" font-family="Verdana" font-size="12.5" lengthAdjust="spacing" textLength="67.7083" x="329.4271" y="283.9986">Composes</text><text fill="#FFFFFF" font-family="Verdana" font-size="12.5" lengthAdjust="spacing" textLength="21.875" x="318.872" y="312.9531">0..n</text></g><!--SRC=[xLHDJ-D03BtFh_1oIZSguenMAosK0n92I8NJYeCxCStGn1Dc712izhzmPVz6_zXwyb4Gb0Ft-Z2Pl6S_UIpvVPEIQe95XNOrNR5RbcBYod630Mkm5SRuIoIuHIjqQZtFtHF1WJ4T0nV1tv8L-6FokIRn4feUESUQtcCpYjRaHuuB1SzSb1-N65S_GVIC9cyvkYLJ0JULHu6Y3IZEyqP5N4rNxEG3C2zzK3I90N6HliRaGslPnEHC3mdCqg6_Iv9qEtfCJMQzsEGGkhf47WSdpc9rWL9cIgHMVoVsskJY-_o4zpSprLJRLYWq6rhE9h2BNUpYws7-ZjRIhVEhht1dA9zvnFIDdHJKg0iGMqVHzBOmB3cC2zgRm0c6IdDaBXWaBNGdsb5dkirRYR7cX8jj5H_WsPjcHY_f-zpg9Vfwza8WlW5_ix5NhSFqsFKBGU6TmFgV1890lVKaUFqCjiIxbdHmjYJ0Mz-A4eFWmeluEcbsSps4uwvIXnK7uGXg-Q0tsuRexfqMGu4SeKefwvVq3cIRPZgsjNUmlyzxy7sw4VLruoF5_m00]--></g></svg>