<?xml version="1.0" encoding="UTF-8" standalone="no"?><svg xmlns="http://www.w3.org/2000/svg" xmlns:xlink="http://www.w3.org/1999/xlink" contentStyleType="text/css" height="696.875px" preserveAspectRatio="none" style="width:920px;height:696px;" version="1.1" viewBox="0 0 920 696" width="920.8333px" zoomAndPan="magnify"><defs><linearGradient id="g15yh89yiq8ea70" x1="50%" x2="50%" y1="0%" y2="100%"><stop offset="0%" stop-color="#3A3A3A"/><stop offset="100%" stop-color="#262626"/></linearGradient><linearGradient id="g15yh89yiq8ea71" x1="50%" x2="50%" y1="0%" y2="100%"><stop offset="0%" stop-color="#3A3A3A"/><stop offset="100%" stop-color="#484848"/></linearGradient></defs><g><!--class Project--><g id="elem_Project"><rect codeLine="4" fill="url(#g15yh89yiq8ea70)" height="383.4066" id="Project" rx="4.1667" ry="4.1667" style="stroke:#262626;stroke-width:1.0416666666666667;" width="207.2917" x="280.2083" y="203.125"/><rect fill="url(#g15yh89yiq8ea71)" height="34.1715" rx="4.1667" ry="4.1667" style="stroke:url(#g15yh89yiq8ea71);stroke-width:1.0416666666666667;" width="207.2917" x="280.2083" y="203.125"/><rect fill="url(#g15yh89yiq8ea71)" height="4.1667" style="stroke:url(#g15yh89yiq8ea71);stroke-width:1.0416666666666667;" width="207.2917" x="280.2083" y="233.1299"/><rect codeLine="4" fill="none" height="383.4066" id="Project" rx="4.1667" ry="4.1667" style="stroke:#262626;stroke-width:1.0416666666666667;" width="207.2917" x="280.2083" y="203.125"/><ellipse cx="354.6875" cy="220.2108" fill="none" rx="10.4167" ry="10.4167" style="stroke:#262626;stroke-width:1.0416666666666667;"/><path d="M356.6243,216.8254 C355.9408,216.4998 355.5013,216.4022 354.8503,216.4022 C352.9297,216.4022 351.4486,217.9159 351.4486,219.9178 L351.4486,220.7479 C351.4486,222.6522 353.0111,224.0356 355.127,224.0356 C356.0221,224.0356 356.8848,223.8078 357.4219,223.4009 C357.8613,223.1079 358.0892,222.7824 358.0892,222.4894 C358.0892,222.1639 357.7962,221.8709 357.4707,221.8709 C357.3079,221.8709 357.1615,221.936 357.015,222.0662 C356.6732,222.4243 356.6732,222.4243 356.543,222.4894 C356.2337,222.6847 355.7292,222.7824 355.1595,222.7824 C353.6621,222.7824 352.7018,221.9686 352.7018,220.7153 L352.7018,219.9178 C352.7018,218.5994 353.6296,217.6392 354.8991,217.6392 C355.3223,217.6392 355.778,217.7531 356.1198,217.9484 C356.4779,218.1437 356.6081,218.3065 356.6732,218.5994 C356.722,218.9087 356.7383,218.9901 356.8359,219.0877 C356.9336,219.2017 357.1126,219.2668 357.2754,219.2668 C357.487,219.2668 357.666,219.1691 357.7962,219.0063 C357.8776,218.8924 357.9102,218.7622 357.9102,218.4367 L357.9102,217.395 C357.9102,217.0858 357.8939,216.9881 357.8125,216.8742 C357.6986,216.6789 357.5033,216.5649 357.2754,216.5649 C357.0638,216.5649 356.9173,216.6463 356.7546,216.8742 L356.6243,216.8254 Z " fill="#FFF200"/><text fill="#FFF200" font-family="Verdana" font-size="11.4583" lengthAdjust="spacing" textLength="39.5833" x="379.6875" y="224.1776">Project</text><line style="stroke:#262626;stroke-width:1.0416666666666667;" x1="281.25" x2="486.4583" y1="237.2965" y2="237.2965"/><text fill="#FFF200" font-family="Verdana" font-size="11.4583" lengthAdjust="spacing" textLength="123.9583" x="291.6667" y="257.3074">+String projectName</text><text fill="#FFF200" font-family="Verdana" font-size="11.4583" lengthAdjust="spacing" textLength="118.75" x="291.6667" y="281.0623">+String projectDesc</text><text fill="#FFF200" font-family="Verdana" font-size="11.4583" lengthAdjust="spacing" textLength="153.125" x="291.6667" y="304.8172">+BindingList&lt;Task&gt; tasks</text><text fill="#FFF200" font-family="Verdana" font-size="11.4583" lengthAdjust="spacing" textLength="145.8333" x="291.6667" y="328.5721">+unsigned float duration</text><text fill="#FFF200" font-family="Verdana" font-size="11.4583" lengthAdjust="spacing" textLength="97.9167" x="291.6667" y="352.327">+String timeUnit</text><text fill="#FFF200" font-family="Verdana" font-size="11.4583" lengthAdjust="spacing" textLength="129.1667" x="291.6667" y="376.0818">+String timeUnitShort</text><text fill="#FFF200" font-family="Verdana" font-size="11.4583" lengthAdjust="spacing" textLength="85.4167" x="291.6667" y="399.8367">-Task endTask</text><line style="stroke:#262626;stroke-width:1.0416666666666667;" x1="281.25" x2="486.4583" y1="411.9141" y2="411.9141"/><text fill="#FFF200" font-family="Verdana" font-size="11.4583" lengthAdjust="spacing" textLength="57.2917" x="291.6667" y="431.9249">+Project()</text><text fill="#FFF200" font-family="Verdana" font-size="11.4583" lengthAdjust="spacing" textLength="96.875" x="291.6667" y="455.6798">+newTask(Task)</text><text fill="#FFF200" font-family="Verdana" font-size="11.4583" lengthAdjust="spacing" textLength="184.375" x="291.6667" y="479.4347">+getTaskByName(String): Task</text><text fill="#FFF200" font-family="Verdana" font-size="11.4583" lengthAdjust="spacing" textLength="164.5833" x="291.6667" y="503.1896">+getCriticalPath(): List[Task]</text><text fill="#FFF200" font-family="Verdana" font-size="11.4583" lengthAdjust="spacing" textLength="105.2083" x="291.6667" y="526.9445">+toString(): String</text><text fill="#FFF200" font-family="Verdana" font-size="11.4583" lengthAdjust="spacing" textLength="115.625" x="291.6667" y="550.6994">-calculateDuration()</text><text fill="#FFF200" font-family="Verdana" font-size="11.4583" lengthAdjust="spacing" textLength="108.3333" x="291.6667" y="574.4542">-calulateEndTask()</text></g><!--class Task--><g id="elem_Task"><rect codeLine="22" fill="url(#g15yh89yiq8ea70)" height="288.387" id="Task" rx="4.1667" ry="4.1667" style="stroke:#262626;stroke-width:1.0416666666666667;" width="220.8333" x="603.6458" y="250.5208"/><rect fill="url(#g15yh89yiq8ea71)" height="34.1715" rx="4.1667" ry="4.1667" style="stroke:url(#g15yh89yiq8ea71);stroke-width:1.0416666666666667;" width="220.8333" x="603.6458" y="250.5208"/><rect fill="url(#g15yh89yiq8ea71)" height="4.1667" style="stroke:url(#g15yh89yiq8ea71);stroke-width:1.0416666666666667;" width="220.8333" x="603.6458" y="280.5257"/><rect codeLine="22" fill="none" height="288.387" id="Task" rx="4.1667" ry="4.1667" style="stroke:#262626;stroke-width:1.0416666666666667;" width="220.8333" x="603.6458" y="250.5208"/><ellipse cx="691.1458" cy="267.6066" fill="none" rx="10.4167" ry="10.4167" style="stroke:#262626;stroke-width:1.0416666666666667;"/><path d="M693.0827,264.2212 C692.3991,263.8957 691.9596,263.798 691.3086,263.798 C689.388,263.798 687.9069,265.3117 687.9069,267.3136 L687.9069,268.1437 C687.9069,270.048 689.4694,271.4315 691.5853,271.4315 C692.4805,271.4315 693.3431,271.2036 693.8802,270.7967 C694.3197,270.5037 694.5475,270.1782 694.5475,269.8853 C694.5475,269.5597 694.2546,269.2668 693.929,269.2668 C693.7663,269.2668 693.6198,269.3319 693.4733,269.4621 C693.1315,269.8201 693.1315,269.8201 693.0013,269.8853 C692.6921,270.0806 692.1875,270.1782 691.6178,270.1782 C690.1204,270.1782 689.1602,269.3644 689.1602,268.1112 L689.1602,267.3136 C689.1602,265.9953 690.0879,265.035 691.3574,265.035 C691.7806,265.035 692.2363,265.1489 692.5781,265.3442 C692.9362,265.5396 693.0664,265.7023 693.1315,265.9953 C693.1803,266.3045 693.1966,266.3859 693.2943,266.4836 C693.3919,266.5975 693.571,266.6626 693.7337,266.6626 C693.9453,266.6626 694.1243,266.5649 694.2546,266.4022 C694.3359,266.2882 694.3685,266.158 694.3685,265.8325 L694.3685,264.7909 C694.3685,264.4816 694.3522,264.384 694.2708,264.27 C694.1569,264.0747 693.9616,263.9608 693.7337,263.9608 C693.5221,263.9608 693.3757,264.0422 693.2129,264.27 L693.0827,264.2212 Z " fill="#FFF200"/><text fill="#FFF200" font-family="Verdana" font-size="11.4583" lengthAdjust="spacing" textLength="27.0833" x="716.1458" y="271.5734">Task</text><line style="stroke:#262626;stroke-width:1.0416666666666667;" x1="604.6875" x2="823.4375" y1="284.6924" y2="284.6924"/><text fill="#FFF200" font-family="Verdana" font-size="11.4583" lengthAdjust="spacing" textLength="82.2917" x="615.1042" y="304.7033">+String name</text><text fill="#FFF200" font-family="Verdana" font-size="11.4583" lengthAdjust="spacing" textLength="145.8333" x="615.1042" y="328.4582">+unsigned float duration</text><text fill="#FFF200" font-family="Verdana" font-size="11.4583" lengthAdjust="spacing" textLength="159.375" x="615.1042" y="352.213">-List&lt;Task&gt; dependencies</text><line style="stroke:#262626;stroke-width:1.0416666666666667;" x1="604.6875" x2="823.4375" y1="364.2904" y2="364.2904"/><text fill="#FFF200" font-family="Verdana" font-size="11.4583" lengthAdjust="spacing" textLength="133.3333" x="615.1042" y="384.3012">+Task(String Duration)</text><text fill="#FFF200" font-family="Verdana" font-size="11.4583" lengthAdjust="spacing" textLength="142.7083" x="615.1042" y="408.0561">+getEarliestStart(): float</text><text fill="#FFF200" font-family="Verdana" font-size="11.4583" lengthAdjust="spacing" textLength="135.4167" x="615.1042" y="431.811">+getLatestStart(): float</text><text fill="#FFF200" font-family="Verdana" font-size="11.4583" lengthAdjust="spacing" textLength="136.4583" x="615.1042" y="455.5659">+getEarliestEnd(): float</text><text fill="#FFF200" font-family="Verdana" font-size="11.4583" lengthAdjust="spacing" textLength="129.1667" x="615.1042" y="479.3208">+getLatestEnd(): float</text><text fill="#FFF200" font-family="Verdana" font-size="11.4583" lengthAdjust="spacing" textLength="197.9167" x="615.1042" y="503.0757">+getDependencies(): List&lt;Task&gt;</text><text fill="#FFF200" font-family="Verdana" font-size="11.4583" lengthAdjust="spacing" textLength="105.2083" x="615.1042" y="526.8305">+toString(): String</text></g><!--class Probabilistic Task--><g id="elem_Probabilistic Task"><rect codeLine="36" fill="url(#g15yh89yiq8ea70)" height="98.348" id="Probabilistic Task" rx="4.1667" ry="4.1667" style="stroke:#262626;stroke-width:1.0416666666666667;" width="141.6667" x="643.2292" y="29.6875"/><rect fill="url(#g15yh89yiq8ea71)" height="34.1715" rx="4.1667" ry="4.1667" style="stroke:url(#g15yh89yiq8ea71);stroke-width:1.0416666666666667;" width="141.6667" x="643.2292" y="29.6875"/><rect fill="url(#g15yh89yiq8ea71)" height="4.1667" style="stroke:url(#g15yh89yiq8ea71);stroke-width:1.0416666666666667;" width="141.6667" x="643.2292" y="59.6924"/><rect codeLine="36" fill="none" height="98.348" id="Probabilistic Task" rx="4.1667" ry="4.1667" style="stroke:#262626;stroke-width:1.0416666666666667;" width="141.6667" x="643.2292" y="29.6875"/><ellipse cx="657.8125" cy="46.7733" fill="none" rx="10.4167" ry="10.4167" style="stroke:#262626;stroke-width:1.0416666666666667;"/><path d="M659.7493,43.3879 C659.0658,43.0623 658.6263,42.9647 657.9753,42.9647 C656.0547,42.9647 654.5736,44.4784 654.5736,46.4803 L654.5736,47.3104 C654.5736,49.2147 656.1361,50.5981 658.252,50.5981 C659.1471,50.5981 660.0098,50.3703 660.5469,49.9634 C660.9863,49.6704 661.2142,49.3449 661.2142,49.0519 C661.2142,48.7264 660.9212,48.4334 660.5957,48.4334 C660.4329,48.4334 660.2865,48.4985 660.14,48.6287 C659.7982,48.9868 659.7982,48.9868 659.668,49.0519 C659.3587,49.2472 658.8542,49.3449 658.2845,49.3449 C656.7871,49.3449 655.8268,48.5311 655.8268,47.2778 L655.8268,46.4803 C655.8268,45.1619 656.7546,44.2017 658.0241,44.2017 C658.4473,44.2017 658.903,44.3156 659.2448,44.5109 C659.6029,44.7062 659.7331,44.869 659.7982,45.1619 C659.847,45.4712 659.8633,45.5526 659.9609,45.6502 C660.0586,45.7642 660.2376,45.8293 660.4004,45.8293 C660.612,45.8293 660.791,45.7316 660.9212,45.5688 C661.0026,45.4549 661.0352,45.3247 661.0352,44.9992 L661.0352,43.9575 C661.0352,43.6483 661.0189,43.5506 660.9375,43.4367 C660.8236,43.2414 660.6283,43.1274 660.4004,43.1274 C660.1888,43.1274 660.0423,43.2088 659.8796,43.4367 L659.7493,43.3879 Z " fill="#FFF200"/><text fill="#FFF200" font-family="Verdana" font-size="11.4583" lengthAdjust="spacing" textLength="100" x="676.5625" y="50.7401">Probabilistic Task</text><line style="stroke:#262626;stroke-width:1.0416666666666667;" x1="644.2708" x2="783.8542" y1="63.859" y2="63.859"/><text fill="#FFF200" font-family="Verdana" font-size="11.4583" lengthAdjust="spacing" textLength="58.3333" x="654.6875" y="83.8699">+float mu</text><text fill="#FFF200" font-family="Verdana" font-size="11.4583" lengthAdjust="spacing" textLength="75" x="654.6875" y="107.6248">+float sigma</text><line style="stroke:#262626;stroke-width:1.0416666666666667;" x1="644.2708" x2="783.8542" y1="119.7021" y2="119.7021"/></g><!--class Probabilistic Project--><g id="elem_Probabilistic Project"><rect codeLine="41" fill="url(#g15yh89yiq8ea70)" height="122.1029" id="Probabilistic Project" rx="4.1667" ry="4.1667" style="stroke:#262626;stroke-width:1.0416666666666667;" width="163.5417" x="17.7083" y="17.7083"/><rect fill="url(#g15yh89yiq8ea71)" height="34.1715" rx="4.1667" ry="4.1667" style="stroke:url(#g15yh89yiq8ea71);stroke-width:1.0416666666666667;" width="163.5417" x="17.7083" y="17.7083"/><rect fill="url(#g15yh89yiq8ea71)" height="4.1667" style="stroke:url(#g15yh89yiq8ea71);stroke-width:1.0416666666666667;" width="163.5417" x="17.7083" y="47.7132"/><rect codeLine="41" fill="none" height="122.1029" id="Probabilistic Project" rx="4.1667" ry="4.1667" style="stroke:#262626;stroke-width:1.0416666666666667;" width="163.5417" x="17.7083" y="17.7083"/><ellipse cx="36.5104" cy="34.7941" fill="none" rx="10.4167" ry="10.4167" style="stroke:#262626;stroke-width:1.0416666666666667;"/><path d="M38.4473,31.4087 C37.7637,31.0832 37.3242,30.9855 36.6732,30.9855 C34.7526,30.9855 33.2715,32.4992 33.2715,34.5011 L33.2715,35.3312 C33.2715,37.2355 34.834,38.619 36.9499,38.619 C37.8451,38.619 38.7077,38.3911 39.2448,37.9842 C39.6842,37.6912 39.9121,37.3657 39.9121,37.0728 C39.9121,36.7472 39.6191,36.4543 39.2936,36.4543 C39.1309,36.4543 38.9844,36.5194 38.8379,36.6496 C38.4961,37.0076 38.4961,37.0076 38.3659,37.0728 C38.0566,37.2681 37.5521,37.3657 36.9824,37.3657 C35.485,37.3657 34.5247,36.5519 34.5247,35.2987 L34.5247,34.5011 C34.5247,33.1828 35.4525,32.2225 36.722,32.2225 C37.1452,32.2225 37.6009,32.3364 37.9427,32.5317 C38.3008,32.7271 38.431,32.8898 38.4961,33.1828 C38.5449,33.492 38.5612,33.5734 38.6589,33.6711 C38.7565,33.785 38.9355,33.8501 39.0983,33.8501 C39.3099,33.8501 39.4889,33.7524 39.6191,33.5897 C39.7005,33.4757 39.7331,33.3455 39.7331,33.02 L39.7331,31.9784 C39.7331,31.6691 39.7168,31.5715 39.6354,31.4575 C39.5215,31.2622 39.3262,31.1483 39.0983,31.1483 C38.8867,31.1483 38.7402,31.2297 38.5775,31.4575 L38.4473,31.4087 Z " fill="#FFF200"/><text fill="#FFF200" font-family="Verdana" font-size="11.4583" lengthAdjust="spacing" textLength="112.5" x="56.1979" y="38.7609">Probabilistic Project</text><line style="stroke:#262626;stroke-width:1.0416666666666667;" x1="18.75" x2="180.2083" y1="51.8799" y2="51.8799"/><text fill="#FFF200" font-family="Verdana" font-size="11.4583" lengthAdjust="spacing" textLength="53.125" x="29.1667" y="71.8908">-float mu</text><text fill="#FFF200" font-family="Verdana" font-size="11.4583" lengthAdjust="spacing" textLength="69.7917" x="29.1667" y="95.6457">-float sigma</text><line style="stroke:#262626;stroke-width:1.0416666666666667;" x1="18.75" x2="180.2083" y1="107.723" y2="107.723"/><text fill="#FFF200" font-family="Verdana" font-size="11.4583" lengthAdjust="spacing" textLength="140.625" x="29.1667" y="127.7339">+computeProbabilities()</text></g><g id="elem_GMN6"><path d="M217.7083,65.1042 L217.7083,92.1549 A4.1667,4.1667 0 0 0 221.875,96.3216 L397.4292,96.3216 L395.25,202.8698 L405.7625,96.3216 L583.3333,96.3216 A4.1667,4.1667 0 0 0 587.5,92.1549 L587.5,71.3542 L577.0833,60.9375 L221.875,60.9375 A4.1667,4.1667 0 0 0 217.7083,65.1042 " fill="#0060A8" style="stroke:#004D86;stroke-width:1.0416666666666667;"/><path d="M577.0833,60.9375 L577.0833,69.2708 A2.0833,2.0833 0 0 0 579.1667,71.3542 L587.5,71.3542 L577.0833,60.9375 " fill="#0060A8" style="stroke:#004D86;stroke-width:1.0416666666666667;"/><text fill="#FFFFFF" font-family="Verdana" font-size="12.5" lengthAdjust="spacing" textLength="337.5" x="229.1667" y="82.9569">La durée doit être recalculée à chaque Tache ajoutée</text></g><g id="elem_GMN9"><path d="M519.2708,654.1667 L519.2708,681.2174 A4.1667,4.1667 0 0 0 523.4375,685.3841 L904.6875,685.3841 A4.1667,4.1667 0 0 0 908.8542,681.2174 L908.8542,660.4167 L898.4375,650 L718.2292,650 L714.0625,539.1802 L709.8958,650 L523.4375,650 A4.1667,4.1667 0 0 0 519.2708,654.1667 " fill="#0060A8" style="stroke:#004D86;stroke-width:1.0416666666666667;"/><path d="M898.4375,650 L898.4375,658.3333 A2.0833,2.0833 0 0 0 900.5208,660.4167 L908.8542,660.4167 L898.4375,650 " fill="#0060A8" style="stroke:#004D86;stroke-width:1.0416666666666667;"/><text fill="#FFFFFF" font-family="Verdana" font-size="12.5" lengthAdjust="spacing" textLength="357.2917" x="530.7292" y="672.0194">Calcul des durées par récursivité dans les dépendances</text></g><!--reverse link Project to Task--><g id="link_Project_Task"><path codeLine="52" d="M501.4292,394.7917 C534.6333,394.7917 570.6406,394.7917 603.4219,394.7917 " fill="none" id="Project-backto-Task" style="stroke:#303030;stroke-width:3.125;"/><polygon fill="#303030" points="487.8813,394.7917,494.1313,398.9583,500.3813,394.7917,494.1313,390.625,487.8813,394.7917" style="stroke:#303030;stroke-width:3.125;"/><text fill="#FFFFFF" font-family="Verdana" font-size="12.5" lengthAdjust="spacing" textLength="67.7083" x="511.7188" y="383.4778">Composes</text><text fill="#FFFFFF" font-family="Verdana" font-size="12.5" lengthAdjust="spacing" textLength="21.875" x="501.1637" y="412.4391">0..n</text></g><!--link Probabilistic Task to Task--><g id="link_Probabilistic Task_Task"><path codeLine="53" d="M714.0625,127.7292 C714.0625,155.3646 714.0625,191.8875 714.0625,228.9865 " fill="none" id="Probabilistic Task-to-Task" style="stroke:#303030;stroke-width:3.125;"/><polygon fill="none" points="721.3542,229.3833,714.0625,250.2167,706.7708,229.3833,721.3542,229.3833" style="stroke:#303030;stroke-width:3.125;"/></g><!--link Probabilistic Project to Project--><g id="link_Probabilistic Project_Project"><path codeLine="54" d="M153.9729,139.8698 C185.7167,174.9281 227.0271,220.551 265.8573,263.4354 " fill="none" id="Probabilistic Project-to-Project" style="stroke:#303030;stroke-width:3.125;"/><polygon fill="none" points="271.451,258.749,280.0292,279.0865,260.6406,268.5375,271.451,258.749" style="stroke:#303030;stroke-width:3.125;"/></g><!--SRC=[TLFBRjim4BppAxO-EHKKv1mK0PeuXm914S3jgUXXJMqinXAfagiMVVrBh-bl-CUwIprYDFP5fcPtHhEpz2kkgINOD6XtvSwxRSqcxPplC68Bji6KtZ97j-cPtjdWr-u7mOKnkGBtCJoIPVXfYhKq-Irq0_8UM_eVMr6ofhXslXBmpYL-ym7JxWfOdiaKlKzkwwc2XoOWGzL7P1VyhCAkfO_UyGjWNOV8fbGn85_fhp75Q6rvPWfFtnHSwaDUjyHwklwk9fU3sDabP9uMRw9ZPx6vHwwNKb2hdxJwsHGSXdx5XvCffTNs3JAjHiloJGKpTZiO4kZt55es-foOpr6Tchuy2AgYJkOZRnqbcJ3hZYBJfuVnRZ4sqiDhniXgDOlcqfruEbgOE6Bu6EC5l3emCwKq-3oQqZpzGXQpmOrhfD_P7CP2qnZcRllf976qU98sRbUPvSmi3vcciA7jvDREHCvELT879k3GGNYOhx1CW1hx_ecW2evX_vSZGQHXlGhl_u2jyKjFujhM1FWOUfR2ABW9pA5LpRpXIxZ9J5bR6eKJoDyAv6JxcDnN9sIeq2Tej6N_f8cYjxhToTRYulpSB-1rEOlAL259oz4Wo_BNrN2JJmMMEyQtVm00]--></g></svg>