<?xml version="1.0" encoding="UTF-8" standalone="no"?><svg xmlns="http://www.w3.org/2000/svg" xmlns:xlink="http://www.w3.org/1999/xlink" contentStyleType="text/css" height="609.375px" preserveAspectRatio="none" style="width:738px;height:609px;" version="1.1" viewBox="0 0 738 609" width="738.5417px" zoomAndPan="magnify"><defs><linearGradient id="gihvwciwnfdov0" x1="50%" x2="50%" y1="0%" y2="100%"><stop offset="0%" stop-color="#3A3A3A"/><stop offset="100%" stop-color="#262626"/></linearGradient><linearGradient id="gihvwciwnfdov1" x1="50%" x2="50%" y1="0%" y2="100%"><stop offset="0%" stop-color="#3A3A3A"/><stop offset="100%" stop-color="#484848"/></linearGradient></defs><g><!--class Project--><g id="elem_Project"><rect codeLine="4" fill="url(#gihvwciwnfdov0)" height="383.4066" id="Project" rx="4.1667" ry="4.1667" style="stroke:#262626;stroke-width:1.0416666666666667;" width="207.2917" x="97.9167" y="115.625"/><rect fill="url(#gihvwciwnfdov1)" height="34.1715" rx="4.1667" ry="4.1667" style="stroke:url(#gihvwciwnfdov1);stroke-width:1.0416666666666667;" width="207.2917" x="97.9167" y="115.625"/><rect fill="url(#gihvwciwnfdov1)" height="4.1667" style="stroke:url(#gihvwciwnfdov1);stroke-width:1.0416666666666667;" width="207.2917" x="97.9167" y="145.6299"/><rect codeLine="4" fill="none" height="383.4066" id="Project" rx="4.1667" ry="4.1667" style="stroke:#262626;stroke-width:1.0416666666666667;" width="207.2917" x="97.9167" y="115.625"/><ellipse cx="172.3958" cy="132.7108" fill="none" rx="10.4167" ry="10.4167" style="stroke:#262626;stroke-width:1.0416666666666667;"/><path d="M174.3327,129.3254 C173.6491,128.9998 173.2096,128.9022 172.5586,128.9022 C170.638,128.9022 169.1569,130.4159 169.1569,132.4178 L169.1569,133.2479 C169.1569,135.1522 170.7194,136.5356 172.8353,136.5356 C173.7305,136.5356 174.5931,136.3078 175.1302,135.9009 C175.5697,135.6079 175.7975,135.2824 175.7975,134.9894 C175.7975,134.6639 175.5046,134.3709 175.179,134.3709 C175.0163,134.3709 174.8698,134.436 174.7233,134.5662 C174.3815,134.9243 174.3815,134.9243 174.2513,134.9894 C173.9421,135.1847 173.4375,135.2824 172.8678,135.2824 C171.3704,135.2824 170.4102,134.4686 170.4102,133.2153 L170.4102,132.4178 C170.4102,131.0994 171.3379,130.1392 172.6074,130.1392 C173.0306,130.1392 173.4863,130.2531 173.8281,130.4484 C174.1862,130.6437 174.3164,130.8065 174.3815,131.0994 C174.4303,131.4087 174.4466,131.4901 174.5443,131.5877 C174.6419,131.7017 174.821,131.7668 174.9837,131.7668 C175.1953,131.7668 175.3743,131.6691 175.5046,131.5063 C175.5859,131.3924 175.6185,131.2622 175.6185,130.9367 L175.6185,129.895 C175.6185,129.5858 175.6022,129.4881 175.5208,129.3742 C175.4069,129.1789 175.2116,129.0649 174.9837,129.0649 C174.7721,129.0649 174.6257,129.1463 174.4629,129.3742 L174.3327,129.3254 Z " fill="#FFF200"/><text fill="#FFF200" font-family="Verdana" font-size="11.4583" lengthAdjust="spacing" textLength="39.5833" x="197.3958" y="136.6776">Project</text><line style="stroke:#262626;stroke-width:1.0416666666666667;" x1="98.9583" x2="304.1667" y1="149.7965" y2="149.7965"/><text fill="#FFF200" font-family="Verdana" font-size="11.4583" lengthAdjust="spacing" textLength="123.9583" x="109.375" y="169.8074">+String projectName</text><text fill="#FFF200" font-family="Verdana" font-size="11.4583" lengthAdjust="spacing" textLength="118.75" x="109.375" y="193.5623">+String projectDesc</text><text fill="#FFF200" font-family="Verdana" font-size="11.4583" lengthAdjust="spacing" textLength="153.125" x="109.375" y="217.3172">+BindingList&lt;Task&gt; tasks</text><text fill="#FFF200" font-family="Verdana" font-size="11.4583" lengthAdjust="spacing" textLength="145.8333" x="109.375" y="241.0721">+unsigned float duration</text><text fill="#FFF200" font-family="Verdana" font-size="11.4583" lengthAdjust="spacing" textLength="97.9167" x="109.375" y="264.827">+String timeUnit</text><text fill="#FFF200" font-family="Verdana" font-size="11.4583" lengthAdjust="spacing" textLength="129.1667" x="109.375" y="288.5818">+String timeUnitShort</text><text fill="#FFF200" font-family="Verdana" font-size="11.4583" lengthAdjust="spacing" textLength="85.4167" x="109.375" y="312.3367">-Task endTask</text><line style="stroke:#262626;stroke-width:1.0416666666666667;" x1="98.9583" x2="304.1667" y1="324.4141" y2="324.4141"/><text fill="#FFF200" font-family="Verdana" font-size="11.4583" lengthAdjust="spacing" textLength="57.2917" x="109.375" y="344.4249">+Project()</text><text fill="#FFF200" font-family="Verdana" font-size="11.4583" lengthAdjust="spacing" textLength="96.875" x="109.375" y="368.1798">+newTask(Task)</text><text fill="#FFF200" font-family="Verdana" font-size="11.4583" lengthAdjust="spacing" textLength="184.375" x="109.375" y="391.9347">+getTaskByName(String): Task</text><text fill="#FFF200" font-family="Verdana" font-size="11.4583" lengthAdjust="spacing" textLength="164.5833" x="109.375" y="415.6896">+getCriticalPath(): List[Task]</text><text fill="#FFF200" font-family="Verdana" font-size="11.4583" lengthAdjust="spacing" textLength="105.2083" x="109.375" y="439.4445">+toString(): String</text><text fill="#FFF200" font-family="Verdana" font-size="11.4583" lengthAdjust="spacing" textLength="115.625" x="109.375" y="463.1994">-calculateDuration()</text><text fill="#FFF200" font-family="Verdana" font-size="11.4583" lengthAdjust="spacing" textLength="108.3333" x="109.375" y="486.9542">-calulateEndTask()</text></g><!--class Task--><g id="elem_Task"><rect codeLine="22" fill="url(#gihvwciwnfdov0)" height="288.387" id="Task" rx="4.1667" ry="4.1667" style="stroke:#262626;stroke-width:1.0416666666666667;" width="220.8333" x="421.3542" y="163.0208"/><rect fill="url(#gihvwciwnfdov1)" height="34.1715" rx="4.1667" ry="4.1667" style="stroke:url(#gihvwciwnfdov1);stroke-width:1.0416666666666667;" width="220.8333" x="421.3542" y="163.0208"/><rect fill="url(#gihvwciwnfdov1)" height="4.1667" style="stroke:url(#gihvwciwnfdov1);stroke-width:1.0416666666666667;" width="220.8333" x="421.3542" y="193.0257"/><rect codeLine="22" fill="none" height="288.387" id="Task" rx="4.1667" ry="4.1667" style="stroke:#262626;stroke-width:1.0416666666666667;" width="220.8333" x="421.3542" y="163.0208"/><ellipse cx="508.8542" cy="180.1066" fill="none" rx="10.4167" ry="10.4167" style="stroke:#262626;stroke-width:1.0416666666666667;"/><path d="M510.791,176.7212 C510.1074,176.3957 509.668,176.298 509.0169,176.298 C507.0964,176.298 505.6152,177.8117 505.6152,179.8136 L505.6152,180.6437 C505.6152,182.548 507.1777,183.9315 509.2936,183.9315 C510.1888,183.9315 511.0514,183.7036 511.5885,183.2967 C512.028,183.0037 512.2559,182.6782 512.2559,182.3853 C512.2559,182.0597 511.9629,181.7668 511.6374,181.7668 C511.4746,181.7668 511.3281,181.8319 511.1816,181.9621 C510.8398,182.3201 510.8398,182.3201 510.7096,182.3853 C510.4004,182.5806 509.8958,182.6782 509.3262,182.6782 C507.8288,182.6782 506.8685,181.8644 506.8685,180.6112 L506.8685,179.8136 C506.8685,178.4953 507.7962,177.535 509.0658,177.535 C509.4889,177.535 509.9447,177.6489 510.2865,177.8442 C510.6445,178.0396 510.7747,178.2023 510.8398,178.4953 C510.8887,178.8045 510.9049,178.8859 511.0026,178.9836 C511.1003,179.0975 511.2793,179.1626 511.4421,179.1626 C511.6536,179.1626 511.8327,179.0649 511.9629,178.9022 C512.0443,178.7882 512.0768,178.658 512.0768,178.3325 L512.0768,177.2909 C512.0768,176.9816 512.0605,176.884 511.9792,176.77 C511.8652,176.5747 511.6699,176.4608 511.4421,176.4608 C511.2305,176.4608 511.084,176.5422 510.9212,176.77 L510.791,176.7212 Z " fill="#FFF200"/><text fill="#FFF200" font-family="Verdana" font-size="11.4583" lengthAdjust="spacing" textLength="27.0833" x="533.8542" y="184.0734">Task</text><line style="stroke:#262626;stroke-width:1.0416666666666667;" x1="422.3958" x2="641.1458" y1="197.1924" y2="197.1924"/><text fill="#FFF200" font-family="Verdana" font-size="11.4583" lengthAdjust="spacing" textLength="82.2917" x="432.8125" y="217.2033">+String name</text><text fill="#FFF200" font-family="Verdana" font-size="11.4583" lengthAdjust="spacing" textLength="145.8333" x="432.8125" y="240.9582">+unsigned float duration</text><text fill="#FFF200" font-family="Verdana" font-size="11.4583" lengthAdjust="spacing" textLength="159.375" x="432.8125" y="264.713">-List&lt;Task&gt; dependencies</text><line style="stroke:#262626;stroke-width:1.0416666666666667;" x1="422.3958" x2="641.1458" y1="276.7904" y2="276.7904"/><text fill="#FFF200" font-family="Verdana" font-size="11.4583" lengthAdjust="spacing" textLength="133.3333" x="432.8125" y="296.8012">+Task(String Duration)</text><text fill="#FFF200" font-family="Verdana" font-size="11.4583" lengthAdjust="spacing" textLength="142.7083" x="432.8125" y="320.5561">+getEarliestStart(): float</text><text fill="#FFF200" font-family="Verdana" font-size="11.4583" lengthAdjust="spacing" textLength="135.4167" x="432.8125" y="344.311">+getLatestStart(): float</text><text fill="#FFF200" font-family="Verdana" font-size="11.4583" lengthAdjust="spacing" textLength="136.4583" x="432.8125" y="368.0659">+getEarliestEnd(): float</text><text fill="#FFF200" font-family="Verdana" font-size="11.4583" lengthAdjust="spacing" textLength="129.1667" x="432.8125" y="391.8208">+getLatestEnd(): float</text><text fill="#FFF200" font-family="Verdana" font-size="11.4583" lengthAdjust="spacing" textLength="197.9167" x="432.8125" y="415.5757">+getDependencies(): List&lt;Task&gt;</text><text fill="#FFF200" font-family="Verdana" font-size="11.4583" lengthAdjust="spacing" textLength="105.2083" x="432.8125" y="439.3305">+toString(): String</text></g><g id="elem_GMN4"><path d="M16.6667,20.8333 L16.6667,47.8841 A4.1667,4.1667 0 0 0 20.8333,52.0508 L197.3958,52.0508 L201.5625,115.4896 L205.7292,52.0508 L382.2917,52.0508 A4.1667,4.1667 0 0 0 386.4583,47.8841 L386.4583,27.0833 L376.0417,16.6667 L20.8333,16.6667 A4.1667,4.1667 0 0 0 16.6667,20.8333 " fill="#0060A8" style="stroke:#004D86;stroke-width:1.0416666666666667;"/><path d="M376.0417,16.6667 L376.0417,25 A2.0833,2.0833 0 0 0 378.125,27.0833 L386.4583,27.0833 L376.0417,16.6667 " fill="#0060A8" style="stroke:#004D86;stroke-width:1.0416666666666667;"/><text fill="#FFFFFF" font-family="Verdana" font-size="12.5" lengthAdjust="spacing" textLength="337.5" x="28.125" y="38.6861">La durée doit être recalculée à chaque Tache ajoutée</text></g><g id="elem_GMN7"><path d="M336.9792,566.6667 L336.9792,593.7174 A4.1667,4.1667 0 0 0 341.1458,597.8841 L722.3958,597.8841 A4.1667,4.1667 0 0 0 726.5625,593.7174 L726.5625,572.9167 L716.1458,562.5 L535.9375,562.5 L531.7708,451.6802 L527.6042,562.5 L341.1458,562.5 A4.1667,4.1667 0 0 0 336.9792,566.6667 " fill="#0060A8" style="stroke:#004D86;stroke-width:1.0416666666666667;"/><path d="M716.1458,562.5 L716.1458,570.8333 A2.0833,2.0833 0 0 0 718.2292,572.9167 L726.5625,572.9167 L716.1458,562.5 " fill="#0060A8" style="stroke:#004D86;stroke-width:1.0416666666666667;"/><text fill="#FFFFFF" font-family="Verdana" font-size="12.5" lengthAdjust="spacing" textLength="357.2917" x="348.4375" y="584.5194">Calcul des durées par récursivité dans les dépendances</text></g><!--reverse link Project to Task--><g id="link_Project_Task"><path codeLine="40" d="M319.1375,307.2917 C352.3417,307.2917 388.349,307.2917 421.1302,307.2917 " fill="none" id="Project-backto-Task" style="stroke:#303030;stroke-width:3.125;"/><polygon fill="#303030" points="305.5896,307.2917,311.8396,311.4583,318.0896,307.2917,311.8396,303.125,305.5896,307.2917" style="stroke:#303030;stroke-width:3.125;"/><text fill="#FFFFFF" font-family="Verdana" font-size="12.5" lengthAdjust="spacing" textLength="67.7083" x="329.4271" y="295.9778">Composes</text><text fill="#FFFFFF" font-family="Verdana" font-size="12.5" lengthAdjust="spacing" textLength="21.875" x="318.872" y="324.9391">0..n</text></g><!--SRC=[TLB1Jjmm4BtxAmPE2r4GPuIG2ii12I6aBIVKmwmpRCmcTh0de5BrNtg5tzWVwuoJR55PBixalPddDq_UuvfQWcM3TbsklLlLRDBQ-GuZjc0RJEaRStJBdkdA1hzmhmJ7ncG6RcDu9ClmonGBQV8hw0Ra1blw7vjJigOuTxuIyDebFlsEQNq6B6SoHU-JMtcguA49o53r4Ta5lrLXrzATT_m9MDGXiYbL3CXN-ZMc6AtD3apXwKN1cHxokoBMwlodcfmDOWSdaEUKl8YEdSNc5hcU2Q5MxvNzOGeEGx_YGsLAQRLzWqppqRBSgM36BWT30lsUGij6_oNcSrHVRLz-2AgYJlOZRnqbsJ3hZYBJrSDwbnWRwU45OsIrcaKpTIsUTXBJZ1ZUDV49ddymCwKq-DoPacpl0nDmw20yR1-EpA4kktaZg89ZsBnp98WqXAhmvW_O6fzwak1iJO2FeMSXHi5bO0wjQkPSJ-0YJqfOQHHE88yPfB9zJExPoJ1Kw1Cqsh9vqptGMyrqihL_V7Jaz-6mt8g6jWk9qby0]--></g></svg>